<svg xmlns="http://www.w3.org/2000/svg" xmlns:xlink="http://www.w3.org/1999/xlink" version="1.1" x="0px" y="0px" viewBox="0 0 50 50" style="enable-background:new 0 0 50 50;" xml:space="preserve"><style type="text/css">
	.st0{fill:none;stroke:#000000;stroke-width:2;stroke-miterlimit:10;}
	.st1{fill:none;stroke:#000000;stroke-width:2;stroke-linejoin:round;stroke-miterlimit:10;}
	.st2{fill:none;stroke:#000000;stroke-width:2;stroke-linejoin:round;stroke-miterlimit:10;stroke-dasharray:2,2;}
	.st3{fill:none;stroke:#000000;stroke-width:2;stroke-linecap:round;stroke-miterlimit:10;}
	.st4{fill:none;stroke:#000000;stroke-width:2;stroke-miterlimit:10;stroke-dasharray:2,2;}
	.st5{fill:none;stroke:#000000;stroke-width:2;stroke-linejoin:bevel;stroke-miterlimit:10;}
	.st6{fill:none;stroke:#000000;stroke-width:2;stroke-miterlimit:10;stroke-dasharray:2.0674,3.1011;}
	.st7{fill:none;stroke:#000000;stroke-width:2;stroke-miterlimit:10;stroke-dasharray:2,4;}
	.st8{fill:none;stroke:#000000;stroke-width:2;stroke-miterlimit:10;stroke-dasharray:2,3;}
</style><g><g><path class="st0" d="M36.5,25H36v-9h0.5c2.5,0,4.5,2,4.5,4.5v0C41,23,39,25,36.5,25z"></path><path class="st0" d="M13.5,25H14v-9h-0.5C11,16,9,18,9,20.5v0C9,23,11,25,13.5,25z"></path><path class="st0" d="M11.5,16.5c0-0.1,0-0.3,0-0.5c0-0.2,0-0.4,0-0.5C11.5,8,17.6,2,25,2s13.5,6,13.5,13.5c0,0.1,0,0.3,0,0.5    c0,0.2,0,0.3,0,0.5"></path></g><polyline class="st0" points="39,24.2 39,29 30,29  "></polyline><path class="st0" d="M28,31h-3c-1.1,0-2-0.9-2-2v0c0-1.1,0.9-2,2-2h3c1.1,0,2,0.9,2,2v0C30,30.1,29.1,31,28,31z"></path><polyline class="st0" points="37,9 48,9 48,40 2,40 2,9 13,9  "></polyline><line class="st0" x1="17" y1="40" x2="17" y2="48"></line><line class="st0" x1="33" y1="40" x2="33" y2="48"></line><line class="st0" x1="12" y1="48" x2="38" y2="48"></line><line class="st0" x1="48" y1="35" x2="2" y2="35"></line></g></svg>