<svg width="50" height="38" viewBox="0 0 50 38" fill="none" xmlns="http://www.w3.org/2000/svg">
<path d="M25 15.6C28.369 15.6 31.1 12.8689 31.1 9.49999C31.1 6.13106 28.369 3.39999 25 3.39999C21.6311 3.39999 18.9 6.13106 18.9 9.49999C18.9 12.8689 21.6311 15.6 25 15.6Z" stroke="black" stroke-width="2" stroke-miterlimit="10"/>
<path d="M32.7 19.5L25 27.2L17.3 19.5L16.2 19.8C12.3 21 9.59998 24.5 9.59998 28.6V36H40.3V28.6C40.3 24.5 37.6 21 33.7 19.8L32.7 19.5Z" stroke="black" stroke-width="2" stroke-miterlimit="10"/>
<path d="M28.6 4.6C29.6 3 31.4 2 33.4 2C36.6 2 39.2 4.6 39.2 7.8C39.2 11 36.6 13.6 33.4 13.6C32.2 13.6 31.1 13.3 30.2 12.6" stroke="black" stroke-width="2" stroke-miterlimit="10"/>
<path d="M40.2999 33H48V26C48 22.1 45.4999 18.7 41.7999 17.6L40.7 17.3L36.7 21.3" stroke="black" stroke-width="2" stroke-miterlimit="10"/>
<path d="M21.4 4.6C20.4 3 18.6 2 16.6 2C13.4 2 10.8 4.6 10.8 7.8C10.8 11 13.4 13.6 16.6 13.6C17.8 13.6 18.9 13.3 19.8 12.6" stroke="black" stroke-width="2" stroke-miterlimit="10"/>
<path d="M9.7 33H2V26C2 22.1 4.5 18.7 8.2 17.6L9.3 17.3L13.3 21.3" stroke="black" stroke-width="2" stroke-miterlimit="10"/>
</svg>
