<?xml version="1.0" encoding="UTF-8"?>
<svg width="100px" height="100px" viewBox="0 0 100 100" version="1.1" xmlns="http://www.w3.org/2000/svg" xmlns:xlink="http://www.w3.org/1999/xlink">
    <!-- Generator: Sketch 42 (36781) - http://www.bohemiancoding.com/sketch -->
    <title>dollar-symbol</title>
    <desc>Created with Sketch.</desc>
    <defs></defs>
    <g id="Page-1" stroke="none" stroke-width="1" fill="none" fill-rule="evenodd">
        <g id="dollar-symbol" fill-rule="nonzero" fill="#212529">
            <g id="Group">
                <path d="M49.9387755,70.6530612 C48.8163265,70.6530612 47.9183673,71.5510204 47.9183673,72.6734694 L47.9183673,81.6734694 C43.7959184,82.5918367 40.7142857,86.2653061 40.7142857,90.6530612 C40.7142857,95.7346939 44.8571429,99.877551 49.9387755,99.877551 C55.0204082,99.877551 59.1632653,95.7346939 59.1632653,90.6530612 C59.1632653,86.2653061 56.0816327,82.5918367 51.9591837,81.6734694 L51.9591837,72.6734694 C51.9591837,71.5510204 51.0612245,70.6530612 49.9387755,70.6530612 Z M55.122449,90.6734694 C55.122449,93.5306122 52.7959184,95.8571429 49.9387755,95.8571429 C47.0816327,95.8571429 44.755102,93.5306122 44.755102,90.6734694 C44.755102,87.8163265 47.0816327,85.4897959 49.9387755,85.4897959 L49.9387755,85.4897959 L49.9387755,85.4897959 C52.7959184,85.4897959 55.122449,87.8163265 55.122449,90.6734694 Z" id="Shape"></path>
                <path d="M49.9387755,29.2244898 C51.0612245,29.2244898 51.9591837,28.3265306 51.9591837,27.2040816 L51.9591837,18.2040816 C56.0816327,17.2857143 59.1632653,13.6122449 59.1632653,9.2244898 C59.1632653,4.14285714 55.0204082,0 49.9387755,0 C44.8571429,0 40.7142857,4.14285714 40.7142857,9.2244898 C40.7142857,13.6122449 43.7959184,17.2857143 47.9183673,18.2040816 L47.9183673,27.2040816 C47.9183673,28.3265306 48.8163265,29.2244898 49.9387755,29.2244898 Z M44.755102,9.20408163 C44.755102,6.34693878 47.0816327,4.02040816 49.9387755,4.02040816 C52.7959184,4.02040816 55.122449,6.34693878 55.122449,9.20408163 C55.122449,12.0612245 52.7959184,14.3877551 49.9387755,14.3877551 L49.9387755,14.3877551 L49.9387755,14.3877551 C47.0816327,14.3877551 44.755102,12.0612245 44.755102,9.20408163 Z" id="Shape"></path>
                <path d="M81.6734694,51.9591837 C82.5918367,56.0816327 86.2653061,59.1632653 90.6530612,59.1632653 C95.7346939,59.1632653 99.877551,55.0204082 99.877551,49.9387755 C99.877551,44.8571429 95.7346939,40.7142857 90.6530612,40.7142857 C86.2653061,40.7142857 82.5918367,43.7959184 81.6734694,47.9183673 L72.6734694,47.9183673 C71.5510204,47.9183673 70.6530612,48.8163265 70.6530612,49.9387755 C70.6530612,51.0612245 71.5510204,51.9591837 72.6734694,51.9591837 L81.6734694,51.9591837 L81.6734694,51.9591837 Z M85.4897959,49.9387755 C85.4897959,47.0816327 87.8163265,44.755102 90.6734694,44.755102 C93.5306122,44.755102 95.8571429,47.0816327 95.8571429,49.9387755 C95.8571429,52.7959184 93.5306122,55.122449 90.6734694,55.122449 C87.8163265,55.122449 85.4897959,52.7959184 85.4897959,49.9387755 L85.4897959,49.9387755 L85.4897959,49.9387755 Z" id="Shape"></path>
                <path d="M0,49.9387755 C0,55.0204082 4.14285714,59.1632653 9.2244898,59.1632653 C13.6122449,59.1632653 17.2857143,56.0816327 18.2040816,51.9591837 L27.2040816,51.9591837 C28.3265306,51.9591837 29.2244898,51.0612245 29.2244898,49.9387755 C29.2244898,48.8163265 28.3265306,47.9183673 27.2040816,47.9183673 L18.2040816,47.9183673 C17.2857143,43.7959184 13.6122449,40.7142857 9.2244898,40.7142857 C4.12244898,40.7142857 0,44.8571429 0,49.9387755 Z M14.3877551,49.9387755 C14.3877551,52.7959184 12.0612245,55.122449 9.20408163,55.122449 C6.34693878,55.122449 4.02040816,52.7959184 4.02040816,49.9387755 C4.02040816,47.0816327 6.34693878,44.755102 9.20408163,44.755102 C12.0612245,44.755102 14.3877551,47.0816327 14.3877551,49.9387755 Z" id="Shape"></path>
                <path d="M64.5918367,64.5918367 C63.7959184,65.3877551 63.7959184,66.6530612 64.5918367,67.4489796 L70.9591837,73.8163265 C70.0204082,75.2857143 69.5306122,76.9795918 69.5306122,78.7346939 C69.5306122,81.2040816 70.4897959,83.5102041 72.2244898,85.244898 C73.9591837,86.9795918 76.2857143,87.9387755 78.7346939,87.9387755 C81.2040816,87.9387755 83.5102041,86.9795918 85.244898,85.244898 C88.8367347,81.6530612 88.8367347,75.7959184 85.244898,72.2040816 C83.5102041,70.4693878 81.1836735,69.5102041 78.7346939,69.5102041 C76.9591837,69.5102041 75.2653061,70.0204082 73.8163265,70.9387755 L67.4489796,64.5714286 C66.6530612,63.7959184 65.3673469,63.7959184 64.5918367,64.5918367 Z M75.0816327,75.0816327 L75.0816327,75.0816327 L75.0816327,75.0816327 C76.0612245,74.1020408 77.3673469,73.5714286 78.7346939,73.5714286 C80.122449,73.5714286 81.4081633,74.1020408 82.3877551,75.0816327 C84.4081633,77.1020408 84.4081633,80.3877551 82.3877551,82.4081633 C81.4081633,83.3877551 80.1020408,83.9183673 78.7346939,83.9183673 C77.3469388,83.9183673 76.0612245,83.3877551 75.0816327,82.4081633 C74.1020408,81.4285714 73.5714286,80.122449 73.5714286,78.755102 C73.5510204,77.3469388 74.1020408,76.0612245 75.0816327,75.0816327 Z" id="Shape"></path>
                <path d="M27.6530612,14.6326531 C25.9183673,12.8979592 23.5918367,11.9387755 21.1428571,11.9387755 C18.6734694,11.9387755 16.3673469,12.8979592 14.6326531,14.6326531 C12.8979592,16.3673469 11.9387755,18.6938776 11.9387755,21.1428571 C11.9387755,23.6122449 12.8979592,25.9183673 14.6326531,27.6530612 C16.3673469,29.3877551 18.6938776,30.3469388 21.1428571,30.3469388 C22.9183673,30.3469388 24.6122449,29.8367347 26.0612245,28.9183673 L32.4285714,35.2857143 C32.8163265,35.6734694 33.3469388,35.877551 33.8571429,35.877551 C34.3673469,35.877551 34.8979592,35.6734694 35.2857143,35.2857143 C36.0816327,34.4897959 36.0816327,33.2244898 35.2857143,32.4285714 L28.9183673,26.0612245 C29.8571429,24.5918367 30.3469388,22.8979592 30.3469388,21.1428571 C30.3673469,18.6734694 29.4081633,16.3673469 27.6530612,14.6326531 Z M24.7959184,24.7959184 L24.7959184,24.7959184 L24.7959184,24.7959184 C23.8163265,25.7755102 22.5102041,26.3061224 21.1428571,26.3061224 C19.755102,26.3061224 18.4693878,25.7755102 17.4897959,24.7959184 C16.5102041,23.8163265 15.9795918,22.5102041 15.9795918,21.1428571 C15.9795918,19.7755102 16.5102041,18.4489796 17.4897959,17.4897959 C18.4693878,16.5102041 19.7755102,15.9795918 21.1428571,15.9795918 C22.5306122,15.9795918 23.8163265,16.5102041 24.7959184,17.4897959 C25.7755102,18.4693878 26.3061224,19.7755102 26.3061224,21.1428571 C26.3265306,22.5306122 25.7755102,23.8163265 24.7959184,24.7959184 Z" id="Shape"></path>
                <path d="M69.5102041,21.1428571 C69.5102041,22.9183673 70.0204082,24.6122449 70.9387755,26.0612245 L64.5714286,32.4285714 C63.7755102,33.2244898 63.7755102,34.4897959 64.5714286,35.2857143 C64.9591837,35.6734694 65.4897959,35.877551 66,35.877551 C66.5102041,35.877551 67.0408163,35.6734694 67.4285714,35.2857143 L73.8163265,28.9183673 C75.2857143,29.8571429 76.9795918,30.3469388 78.7346939,30.3469388 C81.2040816,30.3469388 83.5102041,29.3877551 85.244898,27.6530612 C88.8367347,24.0612245 88.8367347,18.2040816 85.244898,14.6122449 C83.5102041,12.877551 81.1836735,11.9183673 78.7346939,11.9183673 C76.2653061,11.9183673 73.9591837,12.877551 72.2244898,14.6122449 C70.4693878,16.3673469 69.5102041,18.6734694 69.5102041,21.1428571 Z M75.0816327,17.4897959 C76.0612245,16.5102041 77.3673469,15.9795918 78.7346939,15.9795918 C80.122449,15.9795918 81.4081633,16.5102041 82.3877551,17.4897959 C84.4081633,19.5102041 84.4081633,22.7959184 82.3877551,24.8163265 C81.4081633,25.7959184 80.1020408,26.3265306 78.7346939,26.3265306 C77.3469388,26.3265306 76.0612245,25.7959184 75.0816327,24.8163265 L75.0816327,24.8163265 L75.0816327,24.8163265 C74.1020408,23.8367347 73.5714286,22.5306122 73.5714286,21.1632653 C73.5510204,19.755102 74.1020408,18.4489796 75.0816327,17.4897959 Z" id="Shape"></path>
                <path d="M35.2857143,64.5918367 C34.4897959,63.7959184 33.2244898,63.7959184 32.4285714,64.5918367 L26.0612245,70.9591837 C24.5918367,70.0204082 22.8979592,69.5306122 21.1428571,69.5306122 C18.6734694,69.5306122 16.3673469,70.4897959 14.6326531,72.2244898 C12.8979592,73.9591837 11.9387755,76.2857143 11.9387755,78.7346939 C11.9387755,81.2040816 12.8979592,83.5102041 14.6326531,85.244898 C16.3673469,86.9795918 18.6938776,87.9387755 21.1428571,87.9387755 C23.6122449,87.9387755 25.9183673,86.9795918 27.6530612,85.244898 C30.755102,82.1428571 31.1836735,77.3673469 28.9183673,73.7959184 L35.2857143,67.4285714 C36.0816327,66.6530612 36.0816327,65.3673469 35.2857143,64.5918367 Z M24.7959184,82.3877551 C23.8163265,83.3673469 22.5102041,83.8979592 21.1428571,83.8979592 C19.755102,83.8979592 18.4693878,83.3673469 17.4897959,82.3877551 C16.5102041,81.4081633 15.9795918,80.1020408 15.9795918,78.7346939 C15.9795918,77.3469388 16.5102041,76.0612245 17.4897959,75.0816327 C18.4693878,74.1020408 19.7755102,73.5714286 21.1428571,73.5714286 C22.5306122,73.5714286 23.8163265,74.1020408 24.7959184,75.0816327 L24.7959184,75.0816327 L24.7959184,75.0816327 C26.8163265,77.1020408 26.8163265,80.3877551 24.7959184,82.3877551 Z" id="Shape"></path>
                <path d="M47.5918367,51.9183673 L52.2653061,51.9183673 C53.9795918,51.9183673 55.3673469,53.3061224 55.3673469,55.0408163 C55.3673469,56.755102 53.9795918,58.1428571 52.2653061,58.1428571 L43.8571429,58.1428571 C42.7346939,58.1428571 41.8367347,59.0408163 41.8367347,60.1632653 C41.8367347,61.2857143 42.7346939,62.1836735 43.8571429,62.1836735 L47.9183673,62.1836735 L47.9183673,65.122449 C47.9183673,66.244898 48.8163265,67.1428571 49.9387755,67.1428571 C51.0612245,67.1428571 51.9591837,66.244898 51.9591837,65.122449 L51.9591837,62.1836735 L52.2857143,62.1836735 C56.2244898,62.1836735 59.4489796,58.9795918 59.4489796,55.0408163 C59.4489796,51.1020408 56.244898,47.877551 52.2857143,47.877551 L47.6122449,47.877551 C45.8979592,47.877551 44.5102041,46.4897959 44.5102041,44.7755102 C44.5102041,43.0612245 45.8979592,41.6734694 47.6122449,41.6734694 L55.8571429,41.6734694 C56.9795918,41.6734694 57.877551,40.7755102 57.877551,39.6530612 C57.877551,38.5306122 56.9795918,37.6326531 55.8571429,37.6326531 L51.9591837,37.6326531 L51.9591837,34.755102 C51.9591837,33.6326531 51.0612245,32.7346939 49.9387755,32.7346939 C48.8163265,32.7346939 47.9183673,33.6326531 47.9183673,34.755102 L47.9183673,37.6326531 L47.5918367,37.6326531 C43.6530612,37.6326531 40.4285714,40.8367347 40.4285714,44.7959184 C40.4489796,48.7142857 43.6530612,51.9183673 47.5918367,51.9183673 Z" id="Shape"></path>
            </g>
        </g>
    </g>
</svg>