<?xml version="1.0" encoding="UTF-8"?>
<svg width="100px" height="66px" viewBox="0 0 100 66" version="1.1" xmlns="http://www.w3.org/2000/svg" xmlns:xlink="http://www.w3.org/1999/xlink">
    <!-- Generator: Sketch 42 (36781) - http://www.bohemiancoding.com/sketch -->
    <title>handshake</title>
    <desc>Created with Sketch.</desc>
    <defs></defs>
    <g id="Page-1" stroke="none" stroke-width="1" fill="none" fill-rule="evenodd">
        <g id="handshake" fill-rule="nonzero" fill="#212529">
            <g id="Group">
                <path d="M0.201428571,34.2395918 C0.446326531,34.7293878 0.854489796,35.0967347 1.36469388,35.26 L14.1402041,39.6477551 C14.3646939,39.7293878 14.5687755,39.7497959 14.7932653,39.7497959 C15.63,39.7497959 16.4259184,39.2191837 16.7116327,38.382449 L26.7320408,9.13755102 L27.2422449,9.32122449 C29.8340816,10.2395918 32.7320408,10.0763265 35.2014286,8.8722449 L36.4463265,8.26 C37.9361224,7.54571429 39.6708163,7.42326531 41.2218367,7.97428571 L64.5279592,16.015102 C64.2830612,16.9130612 63.8136735,17.9538776 62.9973469,18.5253061 C62.0585714,19.1783673 60.6095918,19.1783673 58.7116327,18.5253061 L48.2626531,14.9538776 C47.7320408,14.7702041 47.1402041,14.8314286 46.6504082,15.0967347 C46.1606122,15.3620408 45.7932653,15.8314286 45.6504082,16.3620408 C45.63,16.4232653 44.1606122,21.8110204 39.63,24.2395918 C36.7728571,25.7702041 33.2014286,25.8110204 29.0177551,24.382449 C27.9565306,24.015102 26.8136735,24.5865306 26.4463265,25.6477551 C26.0789796,26.7089796 26.6504082,27.8518367 27.7116327,28.2191837 C30.1606122,29.0559184 32.4871429,29.4844898 34.6504082,29.4844898 C37.1606122,29.4844898 39.4667347,28.9130612 41.5687755,27.7906122 C45.6504082,25.5865306 47.8136735,21.7906122 48.8136735,19.4436735 L57.385102,22.382449 C60.5687755,23.4640816 63.2218367,23.3008163 65.2830612,21.8722449 C68.5279592,19.6273469 68.752449,15.2395918 68.7728571,14.7497959 C68.7932653,13.8722449 68.2422449,13.0763265 67.4055102,12.7702041 L42.507551,4.17836735 C39.9361224,3.30081633 37.0789796,3.46408163 34.63,4.66816327 L33.385102,5.28040816 C31.874898,6.01510204 30.1197959,6.11714286 28.5483673,5.56612245 L26.4871429,4.83142857 C26.3646939,4.74979592 26.2422449,4.68857143 26.0993878,4.6477551 L13.385102,0.219183673 C12.3238776,-0.148163265 11.1810204,0.423265306 10.8136735,1.4844898 L0.0993877551,32.7089796 C-0.063877551,33.1987755 -0.0230612245,33.7497959 0.201428571,34.2395918 Z M13.9973469,4.68857143 L22.9361224,7.74979592 L13.5483673,35.1579592 L4.60959184,32.0967347 L13.9973469,4.68857143 Z" id="Shape"></path>
                <path d="M21.2422449,52.7497959 C22.2422449,54.7906122 24.2422449,55.9742857 26.3646939,56.0559184 C26.3646939,56.9334694 26.5687755,57.8314286 26.9565306,58.6477551 C27.6504082,60.0763265 28.8544898,61.137551 30.3646939,61.6477551 C30.9973469,61.8722449 31.6504082,61.9742857 32.2830612,61.9742857 C33.1810204,61.9742857 34.0585714,61.7702041 34.874898,61.3620408 L35.9361224,60.8314286 C36.0177551,61.4436735 36.2014286,62.0763265 36.4871429,62.6681633 C37.1810204,64.0967347 38.385102,65.1579592 39.8953061,65.6681633 C40.5279592,65.8926531 41.1810204,65.9946939 41.8136735,65.9946939 C42.7116327,65.9946939 43.5891837,65.7906122 44.4055102,65.382449 L67.6095918,54.015102 C72.7932653,51.4844898 77.5687755,48.2191837 81.8136735,44.3212245 L86.9973469,39.5661224 L98.8544898,33.7702041 C99.8544898,33.2804082 100.262653,32.0763265 99.7728571,31.0763265 L85.3238776,1.42326531 C85.0789796,0.933469388 84.6708163,0.566122449 84.1606122,0.402857143 C83.6504082,0.219183673 83.0993878,0.26 82.6095918,0.504897959 L70.4871429,6.44367347 C69.4871429,6.93346939 69.0789796,8.13755102 69.5687755,9.13755102 L83.4055102,37.4232653 L79.1197959,41.3620408 C75.1606122,44.9946939 70.6912245,48.0355102 65.874898,50.4028571 L42.6708163,61.7702041 C42.2218367,61.9946939 41.7116327,62.015102 41.2218367,61.8518367 C40.752449,61.6885714 40.3646939,61.3416327 40.1402041,60.8926531 C39.9157143,60.4436735 39.8953061,59.9334694 40.0585714,59.4436735 C40.2218367,58.9742857 40.5687755,58.5865306 41.0177551,58.3620408 L53.9973469,52.015102 C54.9973469,51.5253061 55.4055102,50.3212245 54.9157143,49.3212245 C54.4259184,48.3212245 53.2218367,47.9130612 52.2218367,48.4028571 L39.2422449,54.7497959 L39.2422449,54.7497959 L33.1197959,57.7497959 C32.6708163,57.9742857 32.1606122,57.9946939 31.6708163,57.8314286 C31.2014286,57.6681633 30.8136735,57.3212245 30.5891837,56.8722449 C30.3646939,56.4232653 30.3442857,55.9130612 30.507551,55.4232653 C30.6708163,54.9538776 31.0177551,54.5661224 31.4667347,54.3416327 L50.0789796,45.2395918 C51.0789796,44.7497959 51.4871429,43.5457143 50.9973469,42.5457143 C50.507551,41.5457143 49.3034694,41.137551 48.3034694,41.6273469 L27.385102,51.8518367 C26.4463265,52.3008163 25.3238776,51.9130612 24.8544898,50.9946939 C24.63,50.5457143 24.6095918,50.0355102 24.7728571,49.5457143 C24.9361224,49.0763265 25.2830612,48.6885714 25.7320408,48.4640816 L33.9769388,44.4232653 L33.9769388,44.4232653 L44.6912245,39.1783673 C45.6912245,38.6885714 46.0993878,37.4844898 45.6095918,36.4844898 C45.1197959,35.4844898 43.9157143,35.0763265 42.9157143,35.5661224 L26.2422449,43.7293878 C25.3034694,44.1783673 24.1810204,43.7906122 23.7116327,42.8722449 C23.2626531,41.9334694 23.6504082,40.8110204 24.5687755,40.3416327 L33.4259184,36.015102 C34.4259184,35.5253061 34.8340816,34.3212245 34.3442857,33.3212245 C33.8544898,32.3212245 32.6504082,31.9130612 31.6504082,32.4028571 L22.7932653,36.7293878 C19.8544898,38.1579592 18.63,41.7293878 20.0789796,44.6681633 C20.4871429,45.504898 21.0585714,46.1783673 21.752449,46.7293878 C20.5279592,48.382449 20.2422449,50.7293878 21.2422449,52.7497959 Z M74.0789796,9.17836735 L82.5687755,5.01510204 L95.3034694,31.0355102 L86.8136735,35.1987755 L74.0789796,9.17836735 Z" id="Shape"></path>
            </g>
        </g>
    </g>
</svg>