<?xml version="1.0" encoding="UTF-8"?>
<svg width="100px" height="75px" viewBox="0 0 100 75" version="1.1" xmlns="http://www.w3.org/2000/svg" xmlns:xlink="http://www.w3.org/1999/xlink">
    <!-- Generator: Sketch 42 (36781) - http://www.bohemiancoding.com/sketch -->
    <title>laptop</title>
    <desc>Created with Sketch.</desc>
    <defs></defs>
    <g id="Page-1" stroke="none" stroke-width="1" fill="none" fill-rule="evenodd">
        <g id="laptop" fill-rule="nonzero" fill="#212529">
            <g id="Group">
                <path d="M9.64110429,2.18241309 L9.64110429,52.8981595 L0.213701431,71.8347648 C-0.0930470348,72.4687117 -0.072597137,73.204908 0.295501022,73.797955 C0.663599182,74.391002 1.31799591,74.7591002 2.01329243,74.7591002 L97.8415133,74.7591002 L97.8415133,74.7591002 C98.9662577,74.7591002 99.8660532,73.8593047 99.8660532,72.7345603 C99.8660532,72.3460123 99.7638037,71.9779141 99.5593047,71.6711656 L90.295501,52.8981595 L90.295501,2.18241309 C90.295501,1.05766871 89.3957055,0.157873211 88.2709611,0.157873211 L11.6656442,0.157873211 C10.5408998,0.157873211 9.64110429,1.05766871 9.64110429,2.18241309 Z M37.902863,69.9533742 L38.9662577,67.8265849 L60.9294479,67.8265849 L61.9723926,69.9533742 L37.902863,69.9533742 Z M13.690184,4.20695297 L86.2873211,4.20695297 L86.2873211,51.3439673 L13.690184,51.3439673 L13.690184,4.20695297 L13.690184,4.20695297 Z M87.0439673,55.393047 L94.5899796,70.7100204 L66.8803681,70.7100204 L64.0173824,64.9022495 C63.6697342,64.206953 62.9744376,63.7775051 62.1973415,63.7775051 L37.7188139,63.7775051 C36.9417178,63.7775051 36.2464213,64.206953 35.898773,64.9022495 L33.0153374,70.7100204 L5.30572597,70.7100204 L12.9335378,55.393047 L87.0439673,55.393047 L87.0439673,55.393047 Z" id="Shape"></path>
                <path d="M52.2791411,25.7202454 L47.6370143,25.7202454 C45.9396728,25.7202454 44.5695297,24.3501022 44.5695297,22.6527607 C44.5695297,20.9554192 45.9396728,19.5852761 47.6370143,19.5852761 L55.8374233,19.5852761 C56.9621677,19.5852761 57.8619632,18.6854806 57.8619632,17.5607362 C57.8619632,16.4359918 56.9621677,15.5361963 55.8374233,15.5361963 L51.9723926,15.5361963 L51.9723926,12.6936605 C51.9723926,11.5689162 51.0725971,10.6691207 49.9478528,10.6691207 C48.8231084,10.6691207 47.9233129,11.5689162 47.9233129,12.6936605 L47.9233129,15.5361963 L47.6165644,15.5361963 C43.690184,15.5361963 40.5,18.7263804 40.5,22.6527607 C40.5,26.5791411 43.690184,29.7693252 47.6165644,29.7693252 L52.2586912,29.7693252 C53.9560327,29.7693252 55.3261759,31.1394683 55.3261759,32.8368098 C55.3261759,34.5341513 53.9560327,35.9042945 52.2586912,35.9042945 L43.894683,35.9042945 C42.7699387,35.9042945 41.8701431,36.80409 41.8701431,37.9288344 C41.8701431,39.0535787 42.7699387,39.9533742 43.894683,39.9533742 L47.902863,39.9533742 L47.902863,42.8572597 C47.902863,43.9820041 48.8026585,44.8817996 49.9274029,44.8817996 C51.0521472,44.8817996 51.9519427,43.9820041 51.9519427,42.8572597 L51.9519427,39.9533742 L52.2586912,39.9533742 C56.1850716,39.9533742 59.3752556,36.7631902 59.3752556,32.8368098 C59.3957055,28.9308793 56.2055215,25.7202454 52.2791411,25.7202454 Z" id="Shape"></path>
            </g>
        </g>
    </g>
</svg>