<?xml version="1.0" encoding="UTF-8"?>
<svg width="100px" height="105px" viewBox="0 0 100 105" version="1.1" xmlns="http://www.w3.org/2000/svg" xmlns:xlink="http://www.w3.org/1999/xlink">
    <!-- Generator: Sketch 42 (36781) - http://www.bohemiancoding.com/sketch -->
    <title>like</title>
    <desc>Created with Sketch.</desc>
    <defs></defs>
    <g id="Page-1" stroke="none" stroke-width="1" fill="none" fill-rule="evenodd">
        <g id="like" fill-rule="nonzero" fill="#212529">
            <g id="Group">
                <path d="M99.1927505,40.1066098 C99.8537313,38.8272921 99.9603412,37.3773987 99.51258,36.0127932 C99.0648188,34.6481876 98.1266525,33.5394456 96.8473348,32.8997868 L85.3334755,27.0575693 C85.0136461,26.8869936 84.7791045,26.5884861 84.7364606,26.2260128 L82.7321962,13.4754797 C82.3270789,10.8528785 80.0882729,8.95522388 77.4443497,8.95522388 C77.1671642,8.95522388 76.8686567,8.97654584 76.5914712,9.01918977 L63.8409382,11.0447761 C63.4784648,11.108742 63.1159915,10.9808102 62.8601279,10.7249467 L53.7556503,1.57782516 C52.7535181,0.554371002 51.3889126,-3.78754124e-16 49.9603412,-3.78754124e-16 C48.5317697,-3.78754124e-16 47.1884861,0.554371002 46.165032,1.57782516 L37.0392324,10.7036247 C36.8260128,10.9168443 36.5275053,11.0447761 36.2289979,11.0447761 C36.165032,11.0447761 36.1010661,11.0447761 36.0584222,11.0234542 L23.3078891,8.9978678 C23.0307036,8.95522388 22.7321962,8.93390192 22.4550107,8.93390192 C19.8110874,8.93390192 17.5722814,10.8315565 17.1671642,13.4541578 L15.1628998,26.2046908 C15.0989339,26.5671642 14.8857143,26.8656716 14.5658849,27.0362473 L3.05202559,32.8784648 C1.77270789,33.5181237 0.834541578,34.6268657 0.386780384,35.9914712 C-0.0609808102,37.3560768 0.0669509595,38.8059701 0.706609808,40.0852878 L6.57014925,51.5778252 C6.74072495,51.8976546 6.74072495,52.2814499 6.57014925,52.6012793 L0.706609808,64.0938166 C0.0456289979,65.3731343 -0.0609808102,66.8230277 0.386780384,68.1876333 C0.834541578,69.5522388 1.77270789,70.6609808 3.05202559,71.3006397 L14.5658849,77.1428571 C14.8857143,77.3134328 15.1202559,77.6119403 15.1628998,77.9744136 L17.1671642,90.7249467 C17.5722814,93.347548 19.8110874,95.2452026 22.4550107,95.2452026 C22.7321962,95.2452026 23.0307036,95.2238806 23.3078891,95.1812367 L36.0584222,93.1556503 C36.4208955,93.0916844 36.7833689,93.2196162 37.0392324,93.4754797 L46.165032,102.601279 C47.1671642,103.624733 48.5317697,104.179104 49.9603412,104.179104 C51.3889126,104.179104 52.7321962,103.624733 53.7556503,102.601279 L62.8814499,93.4754797 C63.1373134,93.2196162 63.4997868,93.0916844 63.8622601,93.1556503 L76.6127932,95.1812367 C76.8899787,95.2238806 77.1884861,95.2452026 77.4656716,95.2452026 C80.1095949,95.2452026 82.3484009,93.347548 82.7535181,90.7249467 L84.7577825,77.9744136 C84.8217484,77.6119403 85.034968,77.3134328 85.3547974,77.1428571 L96.8686567,71.3006397 C98.1479744,70.6609808 99.0861407,69.5522388 99.5339019,68.1876333 C99.9816631,66.8230277 99.8537313,65.3731343 99.2140725,64.0938166 L93.350533,52.6012793 C93.1799574,52.2814499 93.1799574,51.8976546 93.350533,51.5778252 L99.1927505,40.1066098 Z M89.5552239,54.5415778 L95.4187633,66.0341151 C95.5466951,66.3113006 95.589339,66.6098081 95.4827292,66.9083156 C95.3974414,67.206823 95.1842217,67.4413646 94.9070362,67.5692964 L83.393177,73.4115139 C81.8579957,74.1791045 80.7918977,75.6716418 80.5360341,77.3560768 L78.5317697,90.1066098 C78.4464819,90.7036247 77.849467,91.1513859 77.2311301,91.0447761 L64.480597,89.0191898 C64.2034115,88.9765458 63.926226,88.9552239 63.6277186,88.9552239 C62.1991471,88.9552239 60.8558635,89.5095949 59.8324094,90.533049 L50.7705757,99.6588486 C50.3441365,100.085288 49.5978678,100.085288 49.1714286,99.6588486 L40.045629,90.533049 C39.0434968,89.5309168 37.6575693,88.9552239 36.2503198,88.9552239 C35.9731343,88.9552239 35.6746269,88.9765458 35.3974414,89.0191898 L22.6469083,91.0447761 C22.0285714,91.1513859 21.4315565,90.7036247 21.3462687,90.1066098 L19.3420043,77.3560768 C19.0861407,75.6716418 17.9987207,74.1791045 16.4848614,73.4115139 L4.97100213,67.5692964 C4.69381663,67.4413646 4.50191898,67.206823 4.39530917,66.9083156 C4.31002132,66.6098081 4.33134328,66.3113006 4.45927505,66.0341151 L10.3228145,54.5415778 C11.1117271,53.0063966 11.1117271,51.1940299 10.3228145,49.6588486 L4.45927505,38.1663113 C4.33134328,37.8891258 4.28869936,37.5906183 4.39530917,37.2921109 C4.48059701,36.9936034 4.69381663,36.7590618 4.97100213,36.6311301 L16.4848614,30.7889126 C18.0200426,30.021322 19.0861407,28.5287846 19.3420043,26.8443497 L21.3462687,14.0938166 C21.4315565,13.4968017 22.0285714,13.0490405 22.6469083,13.1556503 L35.3974414,15.1812367 C35.6746269,15.2238806 35.9518124,15.2452026 36.2503198,15.2452026 L36.2503198,15.2452026 C37.6788913,15.2452026 39.0221748,14.6908316 40.045629,13.6673774 L49.1501066,4.56289979 C49.5765458,4.13646055 50.3228145,4.13646055 50.7492537,4.56289979 L59.8750533,13.6886994 C60.8771855,14.7121535 62.241791,15.2665245 63.6703625,15.2665245 C63.947548,15.2665245 64.2460554,15.2452026 64.5232409,15.2025586 L77.273774,13.1769723 C77.8921109,13.0703625 78.4678038,13.5181237 78.5744136,14.1151386 L80.578678,26.8656716 C80.8345416,28.5501066 81.9219616,30.0426439 83.4358209,30.8102345 L94.9496802,36.652452 C95.2268657,36.7803838 95.4187633,37.0149254 95.5253731,37.3134328 C95.6319829,37.6119403 95.589339,37.9104478 95.4614072,38.1876333 L89.5978678,49.6801706 C88.7876333,51.1940299 88.7876333,53.0277186 89.5552239,54.5415778 Z" id="Shape"></path>
                <path d="M66.6341151,39.3816631 L57.2311301,39.3816631 L57.2311301,32.8571429 C57.2311301,29.4029851 56.1863539,26.8869936 54.1181237,25.3731343 C50.9411514,23.0277186 46.7833689,24.2430704 46.3142857,24.3923241 C45.4400853,24.6695096 44.8430704,25.4797441 44.8430704,26.3965885 L44.8430704,34.7334755 C44.8430704,40.5970149 37.849467,42.6652452 37.5722814,42.750533 C37.4230277,42.793177 37.273774,42.8571429 37.1458422,42.9211087 C36.4422175,42.4093817 35.589339,42.0895522 34.6511727,42.0895522 L28.6170576,42.0895522 C26.3142857,42.0895522 24.4592751,43.9658849 24.4592751,46.2473348 L24.4592751,67.0788913 C24.4592751,69.3816631 26.3356077,71.2366738 28.6170576,71.2366738 L34.6511727,71.2366738 C35.6746269,71.2366738 36.6127932,70.8528785 37.3590618,70.2345416 C38.6810235,71.3219616 40.3441365,71.9829424 42.1778252,71.9829424 L62.6042644,71.9829424 C67.5509595,71.9829424 70.8558635,69.2537313 71.4315565,64.6908316 L74.1820896,47.249467 C74.2034115,47.1428571 74.2034115,47.0362473 74.2034115,46.9296375 C74.2034115,42.771855 70.8132196,39.3816631 66.6341151,39.3816631 Z M34.6085288,67.0575693 L28.6810235,67.0575693 L28.6810235,46.3326226 L34.6085288,46.3326226 L34.6085288,67.0575693 Z M67.273774,64.1151386 L67.273774,64.1791045 C67.1458422,65.1599147 66.8260128,67.803838 62.6255864,67.803838 L42.1991471,67.803838 C40.3441365,67.803838 38.8302772,66.2899787 38.8302772,64.434968 L38.8302772,46.8017058 C40.024307,46.4392324 49.0648188,43.4328358 49.0648188,34.7547974 L49.0648188,28.1876333 C49.9176972,28.1449893 50.9198294,28.2515991 51.6234542,28.7846482 C52.5402985,29.466951 52.9880597,30.8315565 52.9880597,32.8571429 L52.9880597,41.4925373 C52.9880597,42.6652452 53.926226,43.6034115 55.0989339,43.6034115 L66.6127932,43.6034115 C68.4251599,43.6034115 69.8963753,45.0319829 69.9603412,46.8230277 L67.273774,64.1151386 Z" id="Shape"></path>
            </g>
        </g>
    </g>
</svg>