<svg xmlns="http://www.w3.org/2000/svg" xmlns:xlink="http://www.w3.org/1999/xlink" version="1.1" x="0px" y="0px" viewBox="0 0 50 50" style="enable-background:new 0 0 50 50;" xml:space="preserve"><style type="text/css">
	.st0{fill:none;stroke:#000000;stroke-width:2;stroke-miterlimit:10;}
	.st1{fill:none;stroke:#000000;stroke-width:2;stroke-miterlimit:10;stroke-dasharray:2,3;}
	.st2{fill:none;stroke:#000000;stroke-width:2;stroke-linejoin:round;stroke-miterlimit:10;}
	.st3{fill:none;stroke:#000000;stroke-width:2;stroke-miterlimit:10;stroke-dasharray:2,2;}
	.st4{fill:none;stroke:#000000;stroke-width:2;stroke-linejoin:round;stroke-miterlimit:10;stroke-dasharray:2,2;}
	.st5{fill:none;stroke:#000000;stroke-width:2;stroke-miterlimit:10;stroke-dasharray:1.7143,1.7143;}
	.st6{fill:none;stroke:#000000;stroke-width:2;stroke-linecap:round;stroke-miterlimit:10;}
	.st7{fill:none;stroke:#000000;stroke-width:2;stroke-linecap:round;stroke-linejoin:round;stroke-miterlimit:10;}
</style><g><line class="st0" x1="1" y1="2" x2="49" y2="2"></line><g><g><polyline class="st0" points="8,24 12.2,19.8 15.2,22.8 24.2,13.8 30.2,19.8 41,9    "></polyline><polyline class="st0" points="35,9 41,9 41,15    "></polyline></g><rect x="5" y="2" class="st0" width="40" height="27"></rect><line class="st0" x1="1" y1="29" x2="49" y2="29"></line><g><path class="st0" d="M34.7,29l5.7,16.4c0.4,1-0.2,2.2-1.3,2.5l0,0c-1,0.4-2.2-0.2-2.5-1.3L30.5,29"></path><path class="st0" d="M15.3,29L9.6,45.4c-0.4,1,0.2,2.2,1.3,2.5l0,0c1,0.4,2.2-0.2,2.5-1.3L19.5,29"></path></g><path class="st0" d="M25,45L25,45c-1.1,0-2-0.9-2-2V29h4v14C27,44.1,26.1,45,25,45z"></path></g></g></svg>