<svg xmlns="http://www.w3.org/2000/svg" xmlns:xlink="http://www.w3.org/1999/xlink" version="1.1" x="0px" y="0px" viewBox="0 0 50 50" style="enable-background:new 0 0 50 50;" xml:space="preserve"><style type="text/css">
	.st0{fill:none;stroke:#000000;stroke-width:2;stroke-miterlimit:10;}
	.st1{fill:none;stroke:#000000;stroke-width:2;stroke-linejoin:round;stroke-miterlimit:10;}
	.st2{fill:none;stroke:#000000;stroke-width:2;stroke-linejoin:round;stroke-miterlimit:10;stroke-dasharray:2,2;}
	.st3{fill:none;stroke:#000000;stroke-width:2;stroke-linecap:round;stroke-miterlimit:10;}
	.st4{fill:none;stroke:#000000;stroke-width:2;stroke-miterlimit:10;stroke-dasharray:2,2;}
	.st5{fill:none;stroke:#000000;stroke-width:2;stroke-linejoin:bevel;stroke-miterlimit:10;}
	.st6{fill:none;stroke:#000000;stroke-width:2;stroke-miterlimit:10;stroke-dasharray:2.0674,3.1011;}
	.st7{fill:none;stroke:#000000;stroke-width:2;stroke-miterlimit:10;stroke-dasharray:2,4;}
	.st8{fill:none;stroke:#000000;stroke-width:2;stroke-miterlimit:10;stroke-dasharray:2,3;}
</style><g><rect x="2" y="2" class="st0" width="46" height="46"></rect><line class="st0" x1="2" y1="10" x2="48" y2="10"></line><line class="st0" x1="45" y1="6" x2="43" y2="6"></line><line class="st0" x1="41" y1="6" x2="39" y2="6"></line><line class="st0" x1="37" y1="6" x2="35" y2="6"></line><line class="st0" x1="30" y1="6" x2="6" y2="6"></line><polygon class="st0" points="29.9,23 22.1,18.5 22.1,27.5 29.9,23 22.1,18.5 22.1,27.5  "></polygon><rect x="6" y="14" class="st0" width="38" height="18"></rect><line class="st0" x1="5" y1="36" x2="22" y2="36"></line><line class="st0" x1="5" y1="40" x2="22" y2="40"></line><line class="st0" x1="5" y1="44" x2="16" y2="44"></line><line class="st0" x1="28" y1="36" x2="45" y2="36"></line><line class="st0" x1="28" y1="40" x2="45" y2="40"></line><line class="st0" x1="28" y1="44" x2="39" y2="44"></line></g></svg>