<svg xmlns="http://www.w3.org/2000/svg" xmlns:xlink="http://www.w3.org/1999/xlink" version="1.1" x="0px" y="0px" viewBox="0 0 50 50" style="enable-background:new 0 0 50 50;" xml:space="preserve"><style type="text/css">
	.st0{fill:none;stroke:#000000;stroke-width:2;stroke-miterlimit:10;}
	.st1{fill:none;stroke:#000000;stroke-width:2;stroke-miterlimit:10;stroke-dasharray:2,3;}
	.st2{fill:none;stroke:#000000;stroke-width:2;stroke-linejoin:round;stroke-miterlimit:10;}
	.st3{fill:none;stroke:#000000;stroke-width:2;stroke-miterlimit:10;stroke-dasharray:2,2;}
	.st4{fill:none;stroke:#000000;stroke-width:2;stroke-linejoin:round;stroke-miterlimit:10;stroke-dasharray:2,2;}
	.st5{fill:none;stroke:#000000;stroke-width:2;stroke-miterlimit:10;stroke-dasharray:1.7143,1.7143;}
	.st6{fill:none;stroke:#000000;stroke-width:2;stroke-linecap:round;stroke-miterlimit:10;}
	.st7{fill:none;stroke:#000000;stroke-width:2;stroke-linecap:round;stroke-linejoin:round;stroke-miterlimit:10;}
</style><g><g><path class="st0" d="M30,17.8v-3.7l-3.3-0.6c-0.3-1.3-0.8-2.4-1.5-3.5l2-2.7l-2.6-2.6l-2.7,2c-1.1-0.7-2.2-1.2-3.5-1.5L17.8,2    h-3.7l-0.6,3.3c-1.3,0.3-2.4,0.8-3.5,1.5l-2.7-2L4.8,7.4l2,2.7c-0.7,1.1-1.2,2.2-1.5,3.5L2,14.2v3.7l3.3,0.6    c0.3,1.3,0.8,2.4,1.5,3.5l-2,2.7l2.6,2.6l2.7-2c1.1,0.7,2.2,1.2,3.5,1.5l0.6,3.3h3.7l0.6-3.3c1.3-0.3,2.4-0.8,3.5-1.5l2.7,2    l2.6-2.6l-2-2.7c0.7-1.1,1.2-2.2,1.5-3.5L30,17.8z"></path><circle class="st0" cx="16" cy="16" r="5.5"></circle></g><polygon class="st0" points="48,12 48,48 12,48  "></polygon><polygon class="st0" points="26.5,42 42,26.5 42,42  "></polygon></g></svg>