<svg xmlns="http://www.w3.org/2000/svg" xmlns:xlink="http://www.w3.org/1999/xlink" version="1.1" x="0px" y="0px" viewBox="0 0 50 50" style="enable-background:new 0 0 50 50;" xml:space="preserve"><style type="text/css">
	.st0{fill:none;stroke:#000000;stroke-width:2;stroke-miterlimit:10;}
	.st1{fill:none;stroke:#000000;stroke-width:2;stroke-miterlimit:10;stroke-dasharray:2,3;}
	.st2{fill:none;stroke:#000000;stroke-width:2;stroke-linejoin:round;stroke-miterlimit:10;}
	.st3{fill:none;stroke:#000000;stroke-width:2;stroke-miterlimit:10;stroke-dasharray:2,2;}
	.st4{fill:none;stroke:#000000;stroke-width:2;stroke-linejoin:round;stroke-miterlimit:10;stroke-dasharray:2,2;}
	.st5{fill:none;stroke:#000000;stroke-width:2;stroke-miterlimit:10;stroke-dasharray:1.7143,1.7143;}
	.st6{fill:none;stroke:#000000;stroke-width:2;stroke-linecap:round;stroke-miterlimit:10;}
	.st7{fill:none;stroke:#000000;stroke-width:2;stroke-linecap:round;stroke-linejoin:round;stroke-miterlimit:10;}
</style><g><rect x="2" y="2" class="st0" width="46" height="46"></rect><line class="st0" x1="2" y1="10" x2="48" y2="10"></line><line class="st0" x1="45" y1="6" x2="43" y2="6"></line><line class="st0" x1="41" y1="6" x2="39" y2="6"></line><line class="st0" x1="37" y1="6" x2="35" y2="6"></line><line class="st0" x1="30" y1="6" x2="6" y2="6"></line><g><path class="st0" d="M16,44L16,44c-1.1,0-2-0.9-2-2v-7c0-1.1,0.9-2,2-2h0c1.1,0,2,0.9,2,2v7C18,43.1,17.1,44,16,44z"></path><circle class="st0" cx="16" cy="22" r="8"></circle><line class="st0" x1="16" y1="30" x2="16" y2="33"></line></g><line class="st0" x1="44" y1="23" x2="35" y2="23"></line><line class="st0" x1="44" y1="29" x2="28" y2="29"></line><line class="st0" x1="44" y1="35" x2="32" y2="35"></line><line class="st0" x1="44" y1="41" x2="23" y2="41"></line></g></svg>