<?xml version="1.0" encoding="UTF-8"?>
<svg width="100px" height="114px" viewBox="0 0 100 114" version="1.1" xmlns="http://www.w3.org/2000/svg" xmlns:xlink="http://www.w3.org/1999/xlink">
    <!-- Generator: Sketch 42 (36781) - http://www.bohemiancoding.com/sketch -->
    <title>startup</title>
    <desc>Created with Sketch.</desc>
    <defs></defs>
    <g id="Page-1" stroke="none" stroke-width="1" fill="none" fill-rule="evenodd">
        <g id="startup" fill-rule="nonzero" fill="#212529">
            <g id="Group">
                <g id="Shape">
                    <path d="M70.3971963,109.08431 L52.3364486,109.08431 L52.3364486,103.866629 C52.3364486,102.591196 51.3084112,101.57085 50.0233645,101.57085 C48.7383178,101.57085 47.7102804,102.591196 47.7102804,103.866629 L47.7102804,109.08431 L29.6495327,109.08431 C28.364486,109.08431 27.3364486,110.104656 27.3364486,111.380089 C27.3364486,112.655522 28.364486,113.675869 29.6495327,113.675869 L70.4205607,113.675869 C71.7056075,113.675869 72.7336449,112.655522 72.7336449,111.380089 C72.7102804,110.104656 71.682243,109.08431 70.3971963,109.08431 Z"></path>
                    <path d="M46.4953271,64.2586356 C40.7009346,65.6036378 36.2149533,70.3575246 35.3037383,76.2708959 L26.0514019,76.2708959 C27.0093458,72.7924422 30.2102804,70.2415761 33.9953271,70.2415761 C35.2803738,70.2415761 36.3084112,69.2212297 36.3084112,67.9457966 C36.3084112,66.6703636 35.2803738,65.6500171 33.9953271,65.6500171 C27.6401869,65.6500171 22.3364486,70.2415761 21.3084112,76.2708959 L3.06074766,76.2708959 C2.8271028,76.2013269 2.61682243,76.1549475 2.35981308,76.1549475 C1.07476636,76.1549475 0.046728972,77.1752939 0.046728972,78.4507269 L0.046728972,90.9731605 C0.046728972,93.8718719 2.42990654,96.2372205 5.35046729,96.2372205 L94.6962617,96.2372205 C97.6168224,96.2372205 100,93.8718719 100,90.9731605 L100,29.937892 C100,27.0391805 97.6168224,24.6738319 94.6962617,24.6738319 L69.6962617,24.6738319 C68.411215,24.6738319 67.3831776,25.6941784 67.3831776,26.9696114 C67.3831776,28.2450445 68.411215,29.2653909 69.6962617,29.2653909 L94.6962617,29.2653909 C95.0700935,29.2653909 95.3738318,29.5668569 95.3738318,29.937892 L95.3738318,90.9963501 C95.3738318,91.3673852 95.0700935,91.6688512 94.6962617,91.6688512 L5.35046729,91.6688512 C4.97663551,91.6688512 4.6728972,91.3673852 4.6728972,90.9963501 L4.6728972,80.8856446 L88.1308411,80.8856446 C89.4158879,80.8856446 90.4439252,79.8652981 90.4439252,78.5898651 C90.4439252,77.3144321 89.4158879,76.2940856 88.1308411,76.2940856 L78.2476636,76.2940856 C77.2196262,70.2647658 71.9158879,65.6732068 65.5607477,65.6732068 C64.2757009,65.6732068 63.2476636,66.6935533 63.2476636,67.9689863 C63.2476636,69.2444194 64.2757009,70.2647658 65.5607477,70.2647658 C69.3691589,70.2647658 72.546729,72.8156319 73.5046729,76.2940856 L64.2990654,76.2940856 C63.317757,69.7082132 57.8504673,64.5601016 51.1214953,63.9571696 C48.3411215,63.7948418 46.4953271,64.2586356 46.4953271,64.2586356 Z M49.8130841,68.4791595 C54.6028037,68.4791595 58.5981308,71.8184751 59.6028037,76.2708959 L40.0233645,76.2708959 C41.0046729,71.8184751 45.0233645,68.4791595 49.8130841,68.4791595 Z"></path>
                    <path d="M32.7570093,26.9696114 C32.7570093,25.6941784 31.728972,24.6738319 30.4439252,24.6738319 L5.35046729,24.6738319 C2.42990654,24.6738319 0.046728972,27.0391805 0.046728972,29.937892 L0.046728972,69.9864895 C0.046728972,71.2619225 1.07476636,72.282269 2.35981308,72.282269 C3.64485981,72.282269 4.6728972,71.2619225 4.6728972,69.9864895 L4.6728972,29.937892 C4.6728972,29.5668569 4.97663551,29.2653909 5.35046729,29.2653909 L30.4439252,29.2653909 C31.728972,29.2653909 32.7570093,28.2450445 32.7570093,26.9696114 Z"></path>
                    <path d="M58.6214953,61.9164768 C59.9065421,61.9164768 60.9345794,60.8961303 60.9345794,59.6206973 L60.9345794,55.1914662 L66.0280374,55.1914662 C67.3130841,55.1914662 68.3411215,54.1711198 68.3411215,52.8956867 L68.3411215,48.3273175 C68.3411215,46.7736081 67.8971963,45.2430885 67.0560748,43.921276 L63.4813084,38.3325603 C63.1308411,37.7991974 62.9672897,37.1730758 62.9672897,36.5469541 L62.9672897,18.203908 C62.9672897,15.421145 61.9626168,12.7311407 60.1168224,10.6208788 L51.5654206,0.788449517 C51.1214953,0.2782763 50.4906542,0 49.8130841,0 L49.8130841,0 C49.135514,0 48.5046729,0.301465992 48.0607477,0.811639209 L39.6028037,10.6440685 C37.8037383,12.7543304 36.7990654,15.421145 36.7990654,18.1807183 L36.7990654,36.4078159 C36.7990654,37.1035067 36.588785,37.7528181 36.1915888,38.3093707 L32.3831776,43.7589482 C31.4018692,45.1503297 30.8878505,46.7736081 30.8878505,48.4664556 L30.8878505,52.8956867 C30.8878505,54.1711198 31.9158879,55.1914662 33.2009346,55.1914662 L37.4065421,55.2146559 L37.4065421,59.643887 C37.4065421,60.91932 38.4345794,61.9396665 39.7196262,61.9396665 C41.0046729,61.9396665 42.0327103,60.91932 42.0327103,59.643887 L42.0327103,55.2146559 L42.0560748,55.1914662 C43.3411215,55.1914662 44.3691589,54.1711198 44.3691589,52.8956867 C44.3691589,51.6202537 43.3411215,50.5999072 42.0560748,50.5999072 L35.5140187,50.5999072 L35.5140187,48.4664556 C35.5140187,47.7243855 35.7476636,47.005505 36.1682243,46.3793834 L39.9766355,40.9298058 C40.911215,39.5848037 41.4018692,38.0310944 41.4018692,36.3846262 L41.4018692,18.1807183 C41.4018692,16.5110605 42.0093458,14.8877821 43.0841121,13.6355387 L49.8598131,5.82061261 L56.635514,13.612349 C57.7336449,14.8877821 58.3411215,16.5110605 58.3411215,18.1807183 L58.3411215,36.5237644 C58.3411215,38.0310944 58.7616822,39.4920449 59.5794393,40.767478 L63.1542056,46.3561937 C63.5280374,46.935936 63.7149533,47.608437 63.7149533,48.3041278 L63.7149533,50.5767175 L57.5,50.5767175 C56.2149533,50.5767175 55.1869159,51.597064 55.1869159,52.872497 C55.1869159,53.7073259 55.6308411,54.4262064 56.3084112,54.8204311 L56.3084112,59.6206973 C56.3084112,60.8961303 57.3598131,61.9164768 58.6214953,61.9164768 Z"></path>
                </g>
                <path d="M47.2663551,54.5189651 L47.2663551,64.4209635 C47.2663551,65.6500171 48.2009346,66.7399326 49.4392523,66.8095017 C50.771028,66.8790708 51.8925234,65.8355347 51.8925234,64.5137222 L51.8925234,54.5189651 C51.8925234,53.2435321 50.864486,52.2231857 49.5794393,52.2231857 L49.5794393,52.2231857 C48.2943925,52.2231857 47.2663551,53.2435321 47.2663551,54.5189651 Z" id="Shape"></path>
            </g>
        </g>
    </g>
</svg>