<?xml version="1.0" encoding="UTF-8"?>
<svg width="100px" height="89px" viewBox="0 0 100 89" version="1.1" xmlns="http://www.w3.org/2000/svg" xmlns:xlink="http://www.w3.org/1999/xlink">
    <!-- Generator: Sketch 42 (36781) - http://www.bohemiancoding.com/sketch -->
    <title>teamwork</title>
    <desc>Created with Sketch.</desc>
    <defs></defs>
    <g id="Page-1" stroke="none" stroke-width="1" fill="none" fill-rule="evenodd">
        <g id="teamwork" fill-rule="nonzero" fill="#212529">
            <g id="Group">
                <path d="M50.1632653,63.110023 C51.8163265,63.110023 53.3265306,62.4743088 54.4693878,61.4489631 L61.9183673,65.7759217 C62.244898,65.9604839 62.5918367,66.0425115 62.9183673,66.0425115 C63.6122449,66.0425115 64.3061224,65.6733871 64.6734694,65.0171659 C65.2244898,64.053341 64.8979592,62.8024194 63.9387755,62.2487327 L56.5102041,57.9422811 C56.5918367,57.5116359 56.6530612,57.0604839 56.6530612,56.6093318 C56.6530612,53.7383641 54.7755102,51.2775346 52.2040816,50.4367512 L52.2040816,41.803341 C52.2040816,40.6754608 51.3061224,39.7731567 50.1836735,39.7731567 C49.0612245,39.7731567 48.1632653,40.6754608 48.1632653,41.803341 L48.1632653,50.4367512 C45.5510204,51.2775346 43.6734694,53.7178571 43.6734694,56.5888249 C43.6734694,57.039977 43.7142857,57.491129 43.8163265,57.9217742 L36.3877551,62.2282258 C35.4285714,62.7819124 35.0816327,64.0328341 35.6530612,64.996659 C36.0204082,65.6528802 36.7142857,66.0220046 37.4081633,66.0220046 C37.755102,66.0220046 38.1020408,65.939977 38.4081633,65.7554147 L45.8571429,61.4284562 C47,62.4743088 48.5102041,63.110023 50.1632653,63.110023 Z M50.1632653,54.1485023 C51.5102041,54.1485023 52.5918367,55.2353687 52.5918367,56.5888249 C52.5918367,57.9422811 51.5102041,59.0291475 50.1632653,59.0291475 C48.8163265,59.0291475 47.7346939,57.9422811 47.7346939,56.5888249 C47.7142857,55.2558756 48.8163265,54.1485023 50.1632653,54.1485023 Z" id="Shape"></path>
                <path d="M67.7346939,42.6441244 C68.8571429,42.6441244 69.755102,41.7418203 69.755102,40.6139401 L69.755102,35.5897465 C69.755102,33.9081797 69.0204082,32.3291475 67.7346939,31.2832949 C63.9183673,28.1252304 59.8163265,25.8284562 57.8979592,24.8236175 L57.8979592,19.7379032 C58.8367347,18.7535714 59.3673469,17.441129 59.3673469,16.046659 L59.3673469,8.70518433 C59.3673469,3.94758065 55.5102041,0.0717741935 50.7755102,0.0717741935 L49.2040816,0.0717741935 C44.4693878,0.0717741935 40.6122449,3.94758065 40.6122449,8.70518433 L40.6122449,16.046659 C40.6122449,17.441129 41.1428571,18.7535714 42.0816327,19.7379032 L42.0816327,24.8031106 C40.1632653,25.8079493 36.0816327,28.1047235 32.244898,31.262788 C30.9591837,32.3291475 30.2244898,33.8876728 30.2244898,35.5692396 L30.2244898,40.5934332 C30.2244898,41.7213134 31.122449,42.6236175 32.244898,42.6236175 C33.3673469,42.6236175 34.2653061,41.7213134 34.2653061,40.5934332 L34.2653061,35.5692396 C34.2653061,35.1180876 34.4693878,34.6874424 34.8163265,34.4003456 C39.1836735,30.791129 43.8979592,28.4123272 44.7959184,27.9611751 C45.6122449,27.5715438 46.1020408,26.7512673 46.1020408,25.8489631 L46.1020408,18.7740783 C46.1020408,18.0973502 45.755102,17.4616359 45.2040816,17.0925115 C44.8571429,16.8464286 44.6326531,16.4567972 44.6326531,16.0261521 L44.6326531,8.70518433 C44.6326531,6.1828341 46.6734694,4.13214286 49.1836735,4.13214286 L50.755102,4.13214286 C53.2653061,4.13214286 55.3061224,6.1828341 55.3061224,8.70518433 L55.3061224,16.0261521 C55.3061224,16.4567972 55.1020408,16.8464286 54.7346939,17.0925115 C54.1632653,17.4616359 53.8367347,18.0973502 53.8367347,18.7740783 L53.8367347,25.8489631 C53.8367347,26.7512673 54.3469388,27.5715438 55.1428571,27.9611751 C56.0408163,28.4123272 60.7755102,30.8116359 65.122449,34.4003456 C65.4693878,34.6874424 65.6734694,35.1180876 65.6734694,35.5692396 L65.6734694,40.5934332 C65.7142857,41.7418203 66.6326531,42.6441244 67.7346939,42.6441244 Z" id="Shape"></path>
                <path d="M100,86.8775346 L100,81.853341 C100,80.1717742 99.2653061,78.5927419 97.9795918,77.5468894 C94.1632653,74.3888249 90.0816327,72.0920507 88.1428571,71.087212 L88.1428571,66.0014977 C89.0816327,65.0171659 89.6122449,63.7047235 89.6122449,62.3102535 L89.6122449,54.9892857 C89.6122449,50.231682 85.755102,46.3558756 81.0204082,46.3558756 L79.4489796,46.3558756 C74.7142857,46.3558756 70.8571429,50.231682 70.8571429,54.9892857 L70.8571429,62.3307604 C70.8571429,63.7252304 71.3877551,65.0376728 72.3265306,66.0220046 L72.3265306,71.1077189 C70.4081633,72.1125576 66.3265306,74.4093318 62.4897959,77.5673963 C61.2040816,78.6337558 60.4693878,80.1922811 60.4693878,81.8738479 L60.4693878,86.8980415 C60.4693878,88.0259217 61.3673469,88.9282258 62.4897959,88.9282258 C63.6122449,88.9282258 64.5102041,88.0259217 64.5102041,86.8980415 L64.5102041,81.8738479 C64.5102041,81.4226959 64.7142857,80.9920507 65.0612245,80.7049539 C69.4285714,77.0957373 74.1428571,74.7169355 75.0408163,74.2657834 C75.8367347,73.8761521 76.3673469,73.0353687 76.3673469,72.1535714 L76.3673469,65.0786866 C76.3673469,64.4019585 76.0204082,63.7662442 75.4693878,63.3971198 C75.122449,63.1510369 74.8979592,62.7614055 74.8979592,62.3307604 L74.8979592,54.9892857 C74.8979592,52.4669355 76.9387755,50.4162442 79.4489796,50.4162442 L81.0204082,50.4162442 C83.5306122,50.4162442 85.5714286,52.4669355 85.5714286,54.9892857 L85.5714286,62.3102535 C85.5714286,62.7408986 85.3673469,63.13053 85,63.3766129 C84.4285714,63.7457373 84.1020408,64.3814516 84.1020408,65.0581797 L84.1020408,72.1330645 C84.1020408,73.0353687 84.6122449,73.8556452 85.4081633,74.2452765 C86.3061224,74.6964286 91.0408163,77.0957373 95.3877551,80.684447 C95.7346939,80.9715438 95.9387755,81.4021889 95.9387755,81.853341 L95.9387755,86.8775346 C95.9387755,88.0054147 96.8367347,88.9077189 97.9591837,88.9077189 C99.1020408,88.9077189 100,88.0054147 100,86.8775346 Z" id="Shape"></path>
                <path d="M37.4897959,88.9077189 C38.6122449,88.9077189 39.5102041,88.0054147 39.5102041,86.8775346 L39.5102041,81.853341 C39.5102041,80.1717742 38.7755102,78.5927419 37.4897959,77.5468894 C33.6734694,74.3888249 29.5918367,72.0920507 27.6530612,71.087212 L27.6530612,66.0014977 C28.5918367,65.0171659 29.122449,63.7047235 29.122449,62.3102535 L29.122449,54.9892857 C29.122449,50.231682 25.2653061,46.3558756 20.5306122,46.3558756 L18.9795918,46.3558756 C14.244898,46.3558756 10.3877551,50.231682 10.3877551,54.9892857 L10.3877551,62.3307604 C10.3877551,63.7252304 10.9183673,65.0376728 11.8571429,66.0220046 L11.8571429,71.1077189 C9.93877551,72.1125576 5.85714286,74.4093318 2.02040816,77.5673963 C0.734693878,78.6337558 -5.43782706e-16,80.1922811 -5.43782706e-16,81.8738479 L-5.43782706e-16,86.8980415 C-5.43782706e-16,88.0259217 0.897959184,88.9282258 2.02040816,88.9282258 C3.14285714,88.9282258 4.04081633,88.0259217 4.04081633,86.8980415 L4.04081633,81.8738479 C4.04081633,81.4226959 4.24489796,80.9920507 4.59183673,80.7049539 C8.93877551,77.1162442 13.6734694,74.7169355 14.5714286,74.2657834 C15.3673469,73.8761521 15.8979592,73.0353687 15.8979592,72.1535714 L15.8979592,65.0786866 C15.8979592,64.4019585 15.5510204,63.7662442 15,63.3971198 C14.6530612,63.1510369 14.4285714,62.7614055 14.4285714,62.3307604 L14.4285714,54.9892857 C14.4285714,52.4669355 16.4693878,50.4162442 18.9795918,50.4162442 L20.5510204,50.4162442 C23.0612245,50.4162442 25.1020408,52.4669355 25.1020408,54.9892857 L25.1020408,62.3102535 C25.1020408,62.7408986 24.8979592,63.13053 24.5306122,63.3766129 C23.9591837,63.7457373 23.6326531,64.3814516 23.6326531,65.0581797 L23.6326531,72.1330645 C23.6326531,73.0353687 24.1428571,73.8556452 24.9387755,74.2452765 C25.8367347,74.6964286 30.5714286,77.0957373 34.9183673,80.684447 C35.2653061,80.9715438 35.4693878,81.4021889 35.4693878,81.853341 L35.4693878,86.8775346 C35.4693878,88.0054147 36.3877551,88.9077189 37.4897959,88.9077189 Z" id="Shape"></path>
            </g>
        </g>
    </g>
</svg>